<mxfile>
    <diagram id="Y9n6_-eNZdjMPOpLqHF6" name="Page-1">
        <mxGraphModel dx="1631" dy="496" grid="0" gridSize="10" guides="1" tooltips="1" connect="1" arrows="1" fold="1" page="1" pageScale="1" pageWidth="827" pageHeight="1169" math="0" shadow="0">
            <root>
                <mxCell id="0"/>
                <mxCell id="1" parent="0"/>
                <mxCell id="4" value="" style="edgeStyle=orthogonalEdgeStyle;rounded=0;orthogonalLoop=1;jettySize=auto;html=1;" parent="1" source="2" target="3" edge="1">
                    <mxGeometry relative="1" as="geometry"/>
                </mxCell>
                <mxCell id="2" value="client" style="rounded=1;whiteSpace=wrap;html=1;strokeColor=#2D7600;fillColor=#CCFF99;fontColor=#0F0F0F;" parent="1" vertex="1">
                    <mxGeometry x="60" y="40" width="120" height="60" as="geometry"/>
                </mxCell>
                <mxCell id="3" value="Gate" style="whiteSpace=wrap;html=1;rounded=1;" parent="1" vertex="1">
                    <mxGeometry x="60" y="180" width="120" height="60" as="geometry"/>
                </mxCell>
                <mxCell id="6" value="" style="edgeStyle=orthogonalEdgeStyle;rounded=0;orthogonalLoop=1;jettySize=auto;html=1;" parent="1" source="7" target="8" edge="1">
                    <mxGeometry relative="1" as="geometry"/>
                </mxCell>
                <mxCell id="7" value="client" style="rounded=1;whiteSpace=wrap;html=1;strokeColor=#2D7600;fillColor=#CCFF99;fontColor=#0F0F0F;" parent="1" vertex="1">
                    <mxGeometry x="260" y="40" width="120" height="60" as="geometry"/>
                </mxCell>
                <mxCell id="8" value="Gate" style="whiteSpace=wrap;html=1;rounded=1;" parent="1" vertex="1">
                    <mxGeometry x="260" y="180" width="120" height="60" as="geometry"/>
                </mxCell>
                <mxCell id="13" value="" style="edgeStyle=orthogonalEdgeStyle;rounded=0;orthogonalLoop=1;jettySize=auto;html=1;" parent="1" source="14" target="15" edge="1">
                    <mxGeometry relative="1" as="geometry"/>
                </mxCell>
                <mxCell id="14" value="client" style="rounded=1;whiteSpace=wrap;html=1;strokeColor=#2D7600;fillColor=#CCFF99;fontColor=#0F0F0F;" parent="1" vertex="1">
                    <mxGeometry x="460" y="40" width="120" height="60" as="geometry"/>
                </mxCell>
                <mxCell id="15" value="Gate" style="whiteSpace=wrap;html=1;rounded=1;" parent="1" vertex="1">
                    <mxGeometry x="460" y="180" width="120" height="60" as="geometry"/>
                </mxCell>
                <mxCell id="17" style="edgeStyle=orthogonalEdgeStyle;rounded=0;orthogonalLoop=1;jettySize=auto;html=1;exitX=0.25;exitY=1;exitDx=0;exitDy=0;entryX=0.25;entryY=0;entryDx=0;entryDy=0;" parent="1" source="16" target="18" edge="1">
                    <mxGeometry relative="1" as="geometry">
                        <mxPoint x="192" y="410" as="targetPoint"/>
                    </mxGeometry>
                </mxCell>
                <mxCell id="19" value="" style="edgeStyle=orthogonalEdgeStyle;rounded=0;orthogonalLoop=1;jettySize=auto;html=1;" parent="1" source="16" target="18" edge="1">
                    <mxGeometry relative="1" as="geometry"/>
                </mxCell>
                <mxCell id="20" style="edgeStyle=orthogonalEdgeStyle;rounded=0;orthogonalLoop=1;jettySize=auto;html=1;exitX=0.75;exitY=1;exitDx=0;exitDy=0;entryX=0.75;entryY=0;entryDx=0;entryDy=0;" parent="1" source="16" target="18" edge="1">
                    <mxGeometry relative="1" as="geometry"/>
                </mxCell>
                <mxCell id="16" value="Dispatcher" style="rounded=1;whiteSpace=wrap;html=1;" parent="1" vertex="1">
                    <mxGeometry x="10" y="300" width="720" height="60" as="geometry"/>
                </mxCell>
                <mxCell id="18" value="Call BootEntity" style="whiteSpace=wrap;html=1;rounded=0;movable=0;shadow=0;fillColor=none;dashed=1;connectable=0;pointerEvents=0;verticalAlign=top;align=left;" parent="1" vertex="1">
                    <mxGeometry x="10" y="430" width="720" height="170" as="geometry"/>
                </mxCell>
                <mxCell id="24" value="" style="edgeStyle=orthogonalEdgeStyle;rounded=0;orthogonalLoop=1;jettySize=auto;html=1;entryX=0.263;entryY=0.002;entryDx=0;entryDy=0;entryPerimeter=0;" parent="1" source="22" target="35" edge="1">
                    <mxGeometry relative="1" as="geometry"/>
                </mxCell>
                <mxCell id="25" value="有" style="edgeLabel;html=1;align=center;verticalAlign=middle;resizable=0;points=[];" parent="24" vertex="1" connectable="0">
                    <mxGeometry x="-0.15" y="1" relative="1" as="geometry">
                        <mxPoint as="offset"/>
                    </mxGeometry>
                </mxCell>
                <mxCell id="31" value="" style="edgeStyle=orthogonalEdgeStyle;rounded=0;orthogonalLoop=1;jettySize=auto;html=1;" parent="1" source="22" target="30" edge="1">
                    <mxGeometry relative="1" as="geometry"/>
                </mxCell>
                <mxCell id="22" value="连接是否有EntityID" style="rhombus;whiteSpace=wrap;html=1;" parent="1" vertex="1">
                    <mxGeometry x="72" y="450" width="170" height="80" as="geometry"/>
                </mxCell>
                <mxCell id="29" value="" style="edgeStyle=orthogonalEdgeStyle;rounded=0;orthogonalLoop=1;jettySize=auto;html=1;entryX=0.286;entryY=-0.004;entryDx=0;entryDy=0;entryPerimeter=0;" parent="1" source="23" target="28" edge="1">
                    <mxGeometry relative="1" as="geometry"/>
                </mxCell>
                <mxCell id="40" value="有" style="edgeLabel;html=1;align=center;verticalAlign=middle;resizable=0;points=[];" parent="29" vertex="1" connectable="0">
                    <mxGeometry x="-0.2381" y="4" relative="1" as="geometry">
                        <mxPoint as="offset"/>
                    </mxGeometry>
                </mxCell>
                <mxCell id="34" value="" style="edgeStyle=orthogonalEdgeStyle;rounded=0;orthogonalLoop=1;jettySize=auto;html=1;" parent="1" source="23" target="33" edge="1">
                    <mxGeometry relative="1" as="geometry"/>
                </mxCell>
                <mxCell id="23" value="本地是否有该实体ID" style="rhombus;whiteSpace=wrap;html=1;" parent="1" vertex="1">
                    <mxGeometry x="110" y="910" width="170" height="80" as="geometry"/>
                </mxCell>
                <mxCell id="28" value="本地call" style="whiteSpace=wrap;html=1;pointerEvents=0;verticalAlign=top;align=left;horizontal=1;fontStyle=0;fillColor=none;dashed=1;" parent="1" vertex="1">
                    <mxGeometry x="12.5" y="1050" width="637.5" height="540" as="geometry"/>
                </mxCell>
                <mxCell id="30" value="创建BootEntity，并绑定BootEntity的ID到这个连接上，该连接有&lt;br&gt;EntityID, ClientID" style="whiteSpace=wrap;html=1;" parent="1" vertex="1">
                    <mxGeometry x="460" y="460" width="210" height="60" as="geometry"/>
                </mxCell>
                <mxCell id="61" value="" style="edgeStyle=orthogonalEdgeStyle;rounded=0;sketch=0;orthogonalLoop=1;jettySize=auto;html=1;" parent="1" source="33" target="60" edge="1">
                    <mxGeometry relative="1" as="geometry"/>
                </mxCell>
                <mxCell id="33" value="远端call" style="whiteSpace=wrap;html=1;" parent="1" vertex="1">
                    <mxGeometry x="820" y="920" width="120" height="60" as="geometry"/>
                </mxCell>
                <mxCell id="35" value="Process Handler" style="html=1;dashed=0;whitespace=wrap;rounded=0;shadow=0;fillColor=none;editable=1;pointerEvents=0;verticalAlign=top;align=left;" parent="1" vertex="1">
                    <mxGeometry x="-40" y="740" width="750" height="980" as="geometry"/>
                </mxCell>
                <mxCell id="37" style="edgeStyle=orthogonalEdgeStyle;rounded=0;orthogonalLoop=1;jettySize=auto;html=1;exitX=0.5;exitY=1;exitDx=0;exitDy=0;" parent="1" source="36" target="23" edge="1">
                    <mxGeometry relative="1" as="geometry"/>
                </mxCell>
                <mxCell id="36" value="处理请求" style="rounded=1;whiteSpace=wrap;html=1;shadow=0;dashed=1;fillColor=none;" parent="1" vertex="1">
                    <mxGeometry x="135" y="780" width="120" height="40" as="geometry"/>
                </mxCell>
                <mxCell id="43" value="" style="edgeStyle=orthogonalEdgeStyle;rounded=0;orthogonalLoop=1;jettySize=auto;html=1;" parent="1" source="41" target="42" edge="1">
                    <mxGeometry relative="1" as="geometry"/>
                </mxCell>
                <mxCell id="41" value="&amp;nbsp;处理本地Call" style="rounded=1;whiteSpace=wrap;html=1;shadow=0;fillColor=none;align=center;" parent="1" vertex="1">
                    <mxGeometry x="60" y="1070" width="120" height="60" as="geometry"/>
                </mxCell>
                <mxCell id="45" value="" style="edgeStyle=orthogonalEdgeStyle;rounded=0;orthogonalLoop=1;jettySize=auto;html=1;" parent="1" source="42" target="44" edge="1">
                    <mxGeometry relative="1" as="geometry"/>
                </mxCell>
                <mxCell id="46" value="是Syscall" style="edgeLabel;html=1;align=center;verticalAlign=middle;resizable=0;points=[];" parent="45" vertex="1" connectable="0">
                    <mxGeometry x="-0.25" y="-3" relative="1" as="geometry">
                        <mxPoint as="offset"/>
                    </mxGeometry>
                </mxCell>
                <mxCell id="54" value="" style="edgeStyle=orthogonalEdgeStyle;rounded=0;orthogonalLoop=1;jettySize=auto;html=1;" parent="1" source="42" target="53" edge="1">
                    <mxGeometry relative="1" as="geometry"/>
                </mxCell>
                <mxCell id="59" value="是Usercall" style="edgeLabel;html=1;align=center;verticalAlign=middle;resizable=0;points=[];" parent="54" vertex="1" connectable="0">
                    <mxGeometry x="-0.4609" y="1" relative="1" as="geometry">
                        <mxPoint as="offset"/>
                    </mxGeometry>
                </mxCell>
                <mxCell id="42" value="是Syscall还是Usercall" style="rhombus;whiteSpace=wrap;html=1;rounded=1;shadow=0;fillColor=none;" parent="1" vertex="1">
                    <mxGeometry x="25" y="1160" width="190" height="70" as="geometry"/>
                </mxCell>
                <mxCell id="48" value="" style="edgeStyle=orthogonalEdgeStyle;rounded=0;orthogonalLoop=1;jettySize=auto;html=1;" parent="1" source="44" target="47" edge="1">
                    <mxGeometry relative="1" as="geometry"/>
                </mxCell>
                <mxCell id="49" value="有" style="edgeLabel;html=1;align=center;verticalAlign=middle;resizable=0;points=[];" parent="48" vertex="1" connectable="0">
                    <mxGeometry x="-0.3176" y="3" relative="1" as="geometry">
                        <mxPoint as="offset"/>
                    </mxGeometry>
                </mxCell>
                <mxCell id="51" value="" style="edgeStyle=orthogonalEdgeStyle;rounded=0;orthogonalLoop=1;jettySize=auto;html=1;" parent="1" source="44" target="50" edge="1">
                    <mxGeometry relative="1" as="geometry"/>
                </mxCell>
                <mxCell id="52" value="没有" style="edgeLabel;html=1;align=center;verticalAlign=middle;resizable=0;points=[];" parent="51" vertex="1" connectable="0">
                    <mxGeometry x="-0.5077" y="-1" relative="1" as="geometry">
                        <mxPoint as="offset"/>
                    </mxGeometry>
                </mxCell>
                <mxCell id="44" value="该实体类型注册的handler中有没有该方法名" style="rhombus;whiteSpace=wrap;html=1;rounded=1;shadow=0;fillColor=none;" parent="1" vertex="1">
                    <mxGeometry x="25" y="1310" width="190" height="70" as="geometry"/>
                </mxCell>
                <mxCell id="47" value="使用 call(ctx, entity, request) (response, error) 的函数签名进行调用" style="whiteSpace=wrap;html=1;rounded=1;shadow=0;fillColor=none;" parent="1" vertex="1">
                    <mxGeometry x="10" y="1490" width="220" height="60" as="geometry"/>
                </mxCell>
                <mxCell id="50" value="返回未找到该方法错误" style="whiteSpace=wrap;html=1;rounded=1;shadow=0;fillColor=none;" parent="1" vertex="1">
                    <mxGeometry x="345" y="1312.5" width="160" height="65" as="geometry"/>
                </mxCell>
                <mxCell id="56" value="" style="edgeStyle=orthogonalEdgeStyle;rounded=0;orthogonalLoop=1;jettySize=auto;html=1;entryX=1;entryY=0.5;entryDx=0;entryDy=0;exitX=1;exitY=0.5;exitDx=0;exitDy=0;" parent="1" source="53" target="47" edge="1">
                    <mxGeometry relative="1" as="geometry">
                        <mxPoint x="600" y="1195" as="targetPoint"/>
                        <Array as="points">
                            <mxPoint x="600" y="1195"/>
                            <mxPoint x="600" y="1520"/>
                        </Array>
                    </mxGeometry>
                </mxCell>
                <mxCell id="57" value="有" style="edgeLabel;html=1;align=center;verticalAlign=middle;resizable=0;points=[];" parent="56" vertex="1" connectable="0">
                    <mxGeometry x="-0.7538" y="-3" relative="1" as="geometry">
                        <mxPoint as="offset"/>
                    </mxGeometry>
                </mxCell>
                <mxCell id="58" value="没有" style="edgeStyle=orthogonalEdgeStyle;rounded=0;orthogonalLoop=1;jettySize=auto;html=1;entryX=0.5;entryY=0;entryDx=0;entryDy=0;" parent="1" source="53" target="50" edge="1">
                    <mxGeometry relative="1" as="geometry"/>
                </mxCell>
                <mxCell id="53" value="该实体类型注册的remote中有没有该方法名" style="rhombus;whiteSpace=wrap;html=1;rounded=1;shadow=0;fillColor=none;" parent="1" vertex="1">
                    <mxGeometry x="330" y="1160" width="190" height="70" as="geometry"/>
                </mxCell>
                <mxCell id="60" value="nats_server:push topic 为 serverType/serverID的 请求到Nats" style="whiteSpace=wrap;html=1;" parent="1" vertex="1">
                    <mxGeometry x="1020" y="925" width="210" height="50" as="geometry"/>
                </mxCell>
                <mxCell id="64" value="nats_client: subscribe topic 为 当前serverType/serverID" style="whiteSpace=wrap;html=1;" parent="1" vertex="1">
                    <mxGeometry x="1020" y="1020" width="210" height="50" as="geometry"/>
                </mxCell>
            </root>
        </mxGraphModel>
    </diagram>
</mxfile>